<mxfile host="app.diagrams.net" modified="2024-01-19T08:21:15.410Z" agent="Mozilla/5.0 (X11; Linux x86_64) AppleWebKit/537.36 (KHTML, like Gecko) Chrome/119.0.0.0 Safari/537.36" version="22.1.21" etag="3rFIgyPA76lANi-kBXk3" type="github">
  <diagram name="第 1 页" id="zU2p8tpetzWcte88azTM">
    <mxGraphModel>
      <root>
        <mxCell id="0" />
        <mxCell id="1" parent="0" />
      </root>
    </mxGraphModel>
  </diagram>
</mxfile>
